<svg width="37" height="32" viewBox="0 0 37 32" fill="none" xmlns="http://www.w3.org/2000/svg">
<path d="M6.68876 14.883C5.00104 13.8838 3.25348 12.9473 1.59115 11.9101C0.777771 11.4027 -0.561685 10.7649 0.253955 9.60184C0.615772 9.08604 2.55355 8.09806 3.20776 7.71988C7.57045 5.19679 12.0212 2.80405 16.4172 0.342503C16.8789 0.147257 18.0383 -0.054702 18.5074 0.01355C19.7971 0.200404 24.2106 2.98419 25.8419 3.88322C28.8019 5.51511 32.0916 7.12575 34.9641 8.8796C37.8366 10.6335 34.9551 11.5873 33.4423 12.5177L33.4435 19.8861C33.7319 20.6659 34.4239 20.7784 34.6147 21.6886C34.7688 22.4232 34.7705 25.3205 34.543 26.0036C33.9989 27.6377 31.4447 27.6612 30.8938 26.0439C30.6731 25.3966 30.7013 22.535 30.7978 21.7927C30.8994 21.0117 31.4904 20.7185 31.8635 20.1093V13.4307L29.4183 14.8981L29.1429 14.869L20.9791 10.1165C22.2779 6.20155 13.4724 6.50421 14.874 10.0768L6.68933 14.8835L6.68876 14.883Z" fill="url(#paint0_linear_6005_127)"/>
<path d="M6.68876 14.883C5.00104 13.8838 3.25348 12.9473 1.59115 11.9101C0.777771 11.4027 -0.561685 10.7649 0.253955 9.60184C0.615772 9.08604 2.55355 8.09806 3.20776 7.71988C7.57045 5.19679 12.0212 2.80405 16.4172 0.342503C16.8789 0.147257 18.0383 -0.054702 18.5074 0.01355C19.7971 0.200404 24.2106 2.98419 25.8419 3.88322C28.8019 5.51511 32.0916 7.12575 34.9641 8.8796C37.8366 10.6335 34.9551 11.5873 33.4423 12.5177L33.4435 19.8861C33.7319 20.6659 34.4239 20.7784 34.6147 21.6886C34.7688 22.4232 34.7705 25.3205 34.543 26.0036C33.9989 27.6377 31.4447 27.6612 30.8938 26.0439C30.6731 25.3966 30.7013 22.535 30.7978 21.7927C30.8994 21.0117 31.4904 20.7185 31.8635 20.1093V13.4307L29.4183 14.8981L29.1429 14.869L20.9791 10.1165C22.2779 6.20155 13.4724 6.50421 14.874 10.0768L6.68933 14.8835L6.68876 14.883Z" fill="url(#paint1_radial_6005_127)" fill-opacity="0.05"/>
<path d="M14.8737 10.0762C15.1458 10.7693 16.2583 11.3131 16.9605 11.4474C18.1154 11.6683 18.9598 11.4093 20.0492 11.1229L27.9691 15.6661C27.1981 16.2093 26.339 16.6899 25.5165 17.1772C24.6292 17.7025 23.6933 18.2004 22.7913 18.7274C21.0015 19.7741 19.08 21.5062 16.8758 20.8091C13.4264 18.9445 10.0674 16.8829 6.68909 14.8829L14.8737 10.0762Z" fill="url(#paint2_linear_6005_127)"/>
<path d="M14.8737 10.0762C15.1458 10.7693 16.2583 11.3131 16.9605 11.4474C18.1154 11.6683 18.9598 11.4093 20.0492 11.1229L27.9691 15.6661C27.1981 16.2093 26.339 16.6899 25.5165 17.1772C24.6292 17.7025 23.6933 18.2004 22.7913 18.7274C21.0015 19.7741 19.08 21.5062 16.8758 20.8091C13.4264 18.9445 10.0674 16.8829 6.68909 14.8829L14.8737 10.0762Z" fill="url(#paint3_radial_6005_127)" fill-opacity="0.05"/>
<path d="M18.373 31.9851C17.5337 32.0634 16.7914 31.824 16.0576 31.4553C14.0013 30.4226 11.345 28.5031 9.3564 27.1957C8.38892 26.5602 5.78564 25.1549 5.78564 23.909V16.5596L16.5741 22.9518C16.9359 23.1213 17.5879 23.354 17.9779 23.3781V31.9297C18.106 31.8687 18.3138 31.9845 18.373 31.9851Z" fill="url(#paint4_linear_6005_127)"/>
<path d="M18.373 31.9851C17.5337 32.0634 16.7914 31.824 16.0576 31.4553C14.0013 30.4226 11.345 28.5031 9.3564 27.1957C8.38892 26.5602 5.78564 25.1549 5.78564 23.909V16.5596L16.5741 22.9518C16.9359 23.1213 17.5879 23.354 17.9779 23.3781V31.9297C18.106 31.8687 18.3138 31.9845 18.373 31.9851Z" fill="url(#paint5_radial_6005_127)" fill-opacity="0.05"/>
<path d="M17.9779 23.3782C18.4029 23.4045 19.3771 22.9704 19.7649 22.7712C20.1076 22.5956 20.4959 22.2666 20.7883 22.0938C23.855 20.2806 26.8884 18.4087 30.0008 16.6716V23.9651C30.0008 24.6118 29.3669 25.291 28.8894 25.6591C26.5548 27.4583 23.203 29.3648 20.6353 30.8999C19.9653 31.3005 19.293 31.9992 18.373 31.9853C18.3137 31.9841 18.106 31.8689 17.9773 31.9299V23.3782H17.9779Z" fill="#4CAEAE"/>
<defs>
<linearGradient id="paint0_linear_6005_127" x1="5.38144" y1="29.7167" x2="47.4024" y2="-16.6611" gradientUnits="userSpaceOnUse">
<stop stop-color="#059669"/>
<stop offset="0.394956" stop-color="#0D9488"/>
<stop offset="1" stop-color="#1D4ED8"/>
</linearGradient>
<radialGradient id="paint1_radial_6005_127" cx="0" cy="0" r="1" gradientUnits="userSpaceOnUse" gradientTransform="translate(18.0944 7.83241) rotate(90) scale(11.9189 15.8326)">
<stop stop-color="white"/>
<stop offset="1" stop-color="white" stop-opacity="0"/>
</radialGradient>
<linearGradient id="paint2_linear_6005_127" x1="9.85352" y1="21.959" x2="24.9349" y2="-2.51831" gradientUnits="userSpaceOnUse">
<stop stop-color="#059669"/>
<stop offset="0.394956" stop-color="#0D9488"/>
<stop offset="1" stop-color="#1D4ED8"/>
</linearGradient>
<radialGradient id="paint3_radial_6005_127" cx="0" cy="0" r="1" gradientUnits="userSpaceOnUse" gradientTransform="translate(17.3291 13.2081) rotate(90) scale(4.766 9.31001)">
<stop stop-color="white"/>
<stop offset="1" stop-color="white" stop-opacity="0"/>
</radialGradient>
<linearGradient id="paint4_linear_6005_127" x1="7.65744" y1="33.4019" x2="29.8813" y2="18.3488" gradientUnits="userSpaceOnUse">
<stop stop-color="#059669"/>
<stop offset="0.394956" stop-color="#0D9488"/>
<stop offset="1" stop-color="#1D4ED8"/>
</linearGradient>
<radialGradient id="paint5_radial_6005_127" cx="0" cy="0" r="1" gradientUnits="userSpaceOnUse" gradientTransform="translate(12.0793 20.9987) rotate(90) scale(6.75516 5.50698)">
<stop stop-color="white"/>
<stop offset="1" stop-color="white" stop-opacity="0"/>
</radialGradient>
</defs>
</svg>
